<mxfile host="app.diagrams.net" modified="2023-03-21T02:30:16.953Z" agent="5.0 (Macintosh; Intel Mac OS X 10_15_7) AppleWebKit/537.36 (KHTML, like Gecko) Chrome/110.0.0.0 Safari/537.36" etag="dttGDD4bJ1g1tYFCbVYh" version="21.0.8" type="github">
  <diagram name="第 1 页" id="fgFBpLy97ZoZ0_dhOQx1">
    <mxGraphModel dx="1306" dy="720" grid="1" gridSize="10" guides="1" tooltips="1" connect="1" arrows="1" fold="1" page="1" pageScale="1" pageWidth="827" pageHeight="1169" math="0" shadow="0">
      <root>
        <mxCell id="0" />
        <mxCell id="1" parent="0" />
        <mxCell id="EUFVMXZ9nCI2H6CG9Nds-1" value="阿斗是大" style="rounded=0;whiteSpace=wrap;html=1;" vertex="1" parent="1">
          <mxGeometry x="350" y="340" width="120" height="60" as="geometry" />
        </mxCell>
      </root>
    </mxGraphModel>
  </diagram>
</mxfile>
